<svg xmlns="http://www.w3.org/2000/svg" viewBox="0 0 200 200" fill="none">
  
  <defs>
    <path id="ring" d="M100,100 m-76,0 a76,76 0 1,1 152,0 a76,76 0 1,1 -152,0"></path>
  </defs>
  <circle cx="100" cy="100" r="92" fill="none" stroke="currentColor" stroke-width="1.2"></circle>
  <circle cx="100" cy="100" r="62" fill="none" stroke="currentColor" stroke-width="1"></circle>
  <text font-family="&#39;JetBrains Mono&#39;, monospace" font-size="10" letter-spacing="4" fill="currentColor">
    <textPath href="#ring" startOffset="0%">TRIBOTAX · TRIBUTAÇÃO RURAL · DESDE 2014 · </textPath>
  </text>
  <g stroke="currentColor" stroke-width="1.4" stroke-linecap="round" stroke-linejoin="round" fill="none">
    <path d="M100 52 C 76 70, 76 100, 100 118 C 124 100, 124 70, 100 52 Z"></path>
    <path d="M100 52 C 76 70, 76 100, 100 118 C 124 100, 124 70, 100 52 Z" transform="rotate(120 100 100)"></path>
    <path d="M100 52 C 76 70, 76 100, 100 118 C 124 100, 124 70, 100 52 Z" transform="rotate(240 100 100)"></path>
  </g>
  <circle cx="100" cy="100" r="3.5" fill="currentColor"></circle>
</svg>